<svg xmlns="http://www.w3.org/2000/svg" viewBox="0 0 512 512">
  <defs>
    <linearGradient id="bg" x1="0%" y1="0%" x2="100%" y2="100%">
      <stop offset="0%" style="stop-color:#6366f1"/>
      <stop offset="100%" style="stop-color:#4f46e5"/>
    </linearGradient>
    <linearGradient id="pill" x1="0%" y1="0%" x2="100%" y2="100%">
      <stop offset="0%" style="stop-color:#ffffff"/>
      <stop offset="100%" style="stop-color:#e0e7ff"/>
    </linearGradient>
  </defs>
  <rect width="512" height="512" rx="108" fill="url(#bg)"/>
  <g transform="translate(256,240) rotate(-30)">
    <rect x="-40" y="-90" width="80" height="180" rx="40" fill="url(#pill)" opacity="0.95"/>
    <rect x="-40" y="0" width="80" height="90" rx="0" fill="#818cf8" opacity="0.6"/>
    <rect x="-40" y="50" width="80" height="40" rx="40" fill="#818cf8" opacity="0.6"/>
  </g>
  <g transform="translate(330, 160)">
    <path d="M0,-30 C-8,-15 -22,5 -22,20 C-22,32 -12,42 0,42 C12,42 22,32 22,20 C22,5 8,-15 0,-30Z" fill="white" opacity="0.9"/>
  </g>
  <circle cx="170" cy="150" r="6" fill="white" opacity="0.7"/>
  <circle cx="155" cy="170" r="3" fill="white" opacity="0.5"/>
  <g transform="translate(330, 340)">
    <circle cx="0" cy="0" r="28" fill="#34d399" opacity="0.9"/>
    <polyline points="-12,0 -4,8 12,-8" fill="none" stroke="white" stroke-width="5" stroke-linecap="round" stroke-linejoin="round"/>
  </g>
</svg>
